<mxfile host="app.diagrams.net" modified="2021-04-19T02:52:51.119Z" agent="5.0 (Windows NT 10.0; Win64; x64) AppleWebKit/537.36 (KHTML, like Gecko) Chrome/84.0.4147.135 Safari/537.36" etag="hyGh5Fy03ULCymOawmnH" version="14.5.8" type="github">
  <diagram id="C5RBs43oDa-KdzZeNtuy" name="Page-1">
    <mxGraphModel dx="2249" dy="762" grid="1" gridSize="10" guides="1" tooltips="1" connect="1" arrows="1" fold="1" page="1" pageScale="1" pageWidth="827" pageHeight="1169" background="none" math="0" shadow="0">
      <root>
        <mxCell id="WIyWlLk6GJQsqaUBKTNV-0" />
        <mxCell id="WIyWlLk6GJQsqaUBKTNV-1" parent="WIyWlLk6GJQsqaUBKTNV-0" />
        <mxCell id="hjN7Fwfowrnle01kFaeb-0" value="start" style="strokeWidth=2;html=1;shape=mxgraph.flowchart.terminator;whiteSpace=wrap;fontSize=28;labelBackgroundColor=none;fontColor=#0D0D0D;fontFamily=Times New Roman;fontStyle=1" parent="WIyWlLk6GJQsqaUBKTNV-1" vertex="1">
          <mxGeometry x="190" y="90" width="100" height="60" as="geometry" />
        </mxCell>
        <mxCell id="hjN7Fwfowrnle01kFaeb-1" value="&lt;font style=&quot;font-size: 16px;&quot;&gt;&lt;br style=&quot;font-size: 16px;&quot;&gt;&lt;div style=&quot;font-size: 16px;&quot;&gt;&lt;span style=&quot;font-size: 16px;&quot;&gt;Set the extent of&amp;nbsp; pyramid layering level&amp;nbsp;&amp;nbsp;&lt;/span&gt;&lt;i style=&quot;font-size: 16px;&quot;&gt;d&amp;nbsp; &lt;/i&gt;&lt;span style=&quot;font-size: 16px;&quot;&gt;from &lt;i style=&quot;font-size: 16px;&quot;&gt;d&lt;sub style=&quot;font-size: 16px;&quot;&gt;min&lt;/sub&gt;&lt;/i&gt; to &lt;i style=&quot;font-size: 16px;&quot;&gt;d&lt;/i&gt;&lt;span style=&quot;font-style: italic; font-size: 16px;&quot;&gt;&lt;sub style=&quot;font-size: 16px;&quot;&gt;max&lt;/sub&gt;&amp;nbsp;&lt;/span&gt;;&lt;/span&gt;&lt;/div&gt;&lt;sup style=&quot;font-size: 16px;&quot;&gt;&lt;br style=&quot;font-size: 16px;&quot;&gt;&lt;/sup&gt;&lt;/font&gt;" style="rounded=1;whiteSpace=wrap;html=1;absoluteArcSize=1;arcSize=14;strokeWidth=2;fontFamily=Times New Roman;fontSize=16;align=center;fontStyle=1" parent="WIyWlLk6GJQsqaUBKTNV-1" vertex="1">
          <mxGeometry x="120" y="200" width="240" height="80" as="geometry" />
        </mxCell>
        <mxCell id="hjN7Fwfowrnle01kFaeb-10" style="edgeStyle=orthogonalEdgeStyle;rounded=0;orthogonalLoop=1;jettySize=auto;html=1;exitX=1;exitY=0.5;exitDx=0;exitDy=0;entryX=0;entryY=0.5;entryDx=0;entryDy=0;fontSize=16;fontFamily=Times New Roman;fontStyle=1" parent="WIyWlLk6GJQsqaUBKTNV-1" source="hjN7Fwfowrnle01kFaeb-2" target="hjN7Fwfowrnle01kFaeb-4" edge="1">
          <mxGeometry relative="1" as="geometry" />
        </mxCell>
        <mxCell id="hjN7Fwfowrnle01kFaeb-2" value="Crime points dataset (&lt;i style=&quot;font-size: 16px;&quot;&gt;X&lt;/i&gt;)&lt;br style=&quot;font-size: 16px;&quot;&gt;and weather dataset(&lt;i style=&quot;font-size: 16px;&quot;&gt;W&lt;/i&gt;)" style="shape=parallelogram;html=1;strokeWidth=2;perimeter=parallelogramPerimeter;whiteSpace=wrap;rounded=1;arcSize=12;size=0.23;fontSize=16;fontFamily=Times New Roman;fontStyle=1" parent="WIyWlLk6GJQsqaUBKTNV-1" vertex="1">
          <mxGeometry x="-160" y="598" width="250" height="82" as="geometry" />
        </mxCell>
        <mxCell id="hjN7Fwfowrnle01kFaeb-3" value="&lt;i style=&quot;font-size: 16px;&quot;&gt;max_PAI&lt;/i&gt;&lt;span style=&quot;font-size: 16px;&quot;&gt;&lt;i style=&quot;font-size: 16px;&quot;&gt;&amp;nbsp;&lt;/i&gt;= 0;&lt;/span&gt;&lt;br style=&quot;font-size: 16px;&quot;&gt;&lt;span style=&quot;font-size: 16px;&quot;&gt;&lt;div style=&quot;font-size: 16px;&quot;&gt;&lt;i style=&quot;font-size: 16px;&quot;&gt;d&lt;/i&gt;&lt;i style=&quot;font-size: 16px;&quot;&gt;&lt;sub style=&quot;font-size: 16px;&quot;&gt;max_PAI&amp;nbsp;&lt;/sub&gt;&lt;/i&gt;=&amp;nbsp;&lt;i style=&quot;font-size: 16px;&quot;&gt;d&lt;sub style=&quot;font-size: 16px;&quot;&gt;min&lt;/sub&gt;&lt;/i&gt;;&lt;/div&gt;&lt;div style=&quot;font-size: 16px;&quot;&gt;&lt;i style=&quot;font-size: 16px;&quot;&gt;d&lt;sub style=&quot;font-size: 16px;&quot;&gt;i&lt;/sub&gt; &lt;/i&gt;= &lt;i style=&quot;font-size: 16px;&quot;&gt;d&lt;sub style=&quot;font-size: 16px;&quot;&gt;min&lt;/sub&gt;&lt;/i&gt;&lt;/div&gt;&lt;/span&gt;" style="rounded=1;whiteSpace=wrap;html=1;absoluteArcSize=1;arcSize=14;strokeWidth=2;fontSize=16;fontFamily=Times New Roman;align=center;fontStyle=1" parent="WIyWlLk6GJQsqaUBKTNV-1" vertex="1">
          <mxGeometry x="120" y="320" width="240" height="80" as="geometry" />
        </mxCell>
        <mxCell id="hjN7Fwfowrnle01kFaeb-4" value="Decretize the space into grid cells according to layer &lt;i style=&quot;font-size: 16px;&quot;&gt;d&lt;sub style=&quot;font-size: 16px;&quot;&gt;i&lt;/sub&gt;&lt;/i&gt;&lt;br style=&quot;font-size: 16px;&quot;&gt;and aggregate data to the grid to get hourly data layers" style="rounded=1;whiteSpace=wrap;html=1;absoluteArcSize=1;arcSize=14;strokeWidth=2;fontSize=16;fontFamily=Times New Roman;fontStyle=1" parent="WIyWlLk6GJQsqaUBKTNV-1" vertex="1">
          <mxGeometry x="120" y="599" width="240" height="91" as="geometry" />
        </mxCell>
        <mxCell id="hjN7Fwfowrnle01kFaeb-5" value="Fit the ST-ResNet moel &lt;i style=&quot;font-size: 16px;&quot;&gt;M&lt;/i&gt; using training data layers&amp;nbsp;" style="rounded=1;whiteSpace=wrap;html=1;absoluteArcSize=1;arcSize=14;strokeWidth=2;fontSize=16;fontFamily=Times New Roman;fontStyle=1" parent="WIyWlLk6GJQsqaUBKTNV-1" vertex="1">
          <mxGeometry x="120" y="730" width="240" height="80" as="geometry" />
        </mxCell>
        <mxCell id="hjN7Fwfowrnle01kFaeb-6" value="Predict &lt;i style=&quot;font-size: 16px;&quot;&gt;M&lt;/i&gt; on test data layers&amp;nbsp;&amp;nbsp;" style="rounded=1;whiteSpace=wrap;html=1;absoluteArcSize=1;arcSize=14;strokeWidth=2;fontSize=16;fontFamily=Times New Roman;fontStyle=1" parent="WIyWlLk6GJQsqaUBKTNV-1" vertex="1">
          <mxGeometry x="120" y="850" width="240" height="80" as="geometry" />
        </mxCell>
        <mxCell id="hjN7Fwfowrnle01kFaeb-7" value="Calculate&amp;nbsp;&lt;span style=&quot;font-size: 16px;&quot;&gt;&lt;i style=&quot;font-size: 16px;&quot;&gt;PAI&lt;sub style=&quot;font-size: 16px;&quot;&gt;i&lt;/sub&gt;&lt;/i&gt;&lt;/span&gt;" style="rounded=1;whiteSpace=wrap;html=1;absoluteArcSize=1;arcSize=14;strokeWidth=2;fontSize=16;fontFamily=Times New Roman;fontStyle=1" parent="WIyWlLk6GJQsqaUBKTNV-1" vertex="1">
          <mxGeometry x="120" y="970" width="240" height="80" as="geometry" />
        </mxCell>
        <mxCell id="hjN7Fwfowrnle01kFaeb-11" value="" style="endArrow=classic;html=1;fontSize=16;exitX=0.5;exitY=1;exitDx=0;exitDy=0;exitPerimeter=0;entryX=0.5;entryY=0;entryDx=0;entryDy=0;fontFamily=Times New Roman;fontStyle=1;strokeWidth=2;" parent="WIyWlLk6GJQsqaUBKTNV-1" source="hjN7Fwfowrnle01kFaeb-0" target="hjN7Fwfowrnle01kFaeb-1" edge="1">
          <mxGeometry width="50" height="50" relative="1" as="geometry">
            <mxPoint x="160" y="420" as="sourcePoint" />
            <mxPoint x="210" y="370" as="targetPoint" />
          </mxGeometry>
        </mxCell>
        <mxCell id="hjN7Fwfowrnle01kFaeb-12" value="" style="endArrow=classic;html=1;fontSize=16;exitX=0.5;exitY=1;exitDx=0;exitDy=0;entryX=0.5;entryY=0;entryDx=0;entryDy=0;fontFamily=Times New Roman;fontStyle=1;strokeWidth=2;" parent="WIyWlLk6GJQsqaUBKTNV-1" source="hjN7Fwfowrnle01kFaeb-1" target="hjN7Fwfowrnle01kFaeb-3" edge="1">
          <mxGeometry width="50" height="50" relative="1" as="geometry">
            <mxPoint x="160" y="420" as="sourcePoint" />
            <mxPoint x="210" y="370" as="targetPoint" />
          </mxGeometry>
        </mxCell>
        <mxCell id="hjN7Fwfowrnle01kFaeb-13" value="" style="endArrow=classic;html=1;fontSize=16;exitX=0.5;exitY=1;exitDx=0;exitDy=0;fontFamily=Times New Roman;fontStyle=1;strokeWidth=2;" parent="WIyWlLk6GJQsqaUBKTNV-1" source="hjN7Fwfowrnle01kFaeb-3" target="YA9H4fB15c2VrXf1QAoc-0" edge="1">
          <mxGeometry width="50" height="50" relative="1" as="geometry">
            <mxPoint x="160" y="500" as="sourcePoint" />
            <mxPoint x="410" y="430" as="targetPoint" />
          </mxGeometry>
        </mxCell>
        <mxCell id="hjN7Fwfowrnle01kFaeb-14" value="" style="endArrow=classic;html=1;fontSize=16;entryX=0.5;entryY=0;entryDx=0;entryDy=0;exitX=0.5;exitY=1;exitDx=0;exitDy=0;fontFamily=Times New Roman;fontStyle=1;strokeWidth=2;" parent="WIyWlLk6GJQsqaUBKTNV-1" source="hjN7Fwfowrnle01kFaeb-4" target="hjN7Fwfowrnle01kFaeb-5" edge="1">
          <mxGeometry width="50" height="50" relative="1" as="geometry">
            <mxPoint x="230" y="560" as="sourcePoint" />
            <mxPoint x="210" y="530" as="targetPoint" />
          </mxGeometry>
        </mxCell>
        <mxCell id="hjN7Fwfowrnle01kFaeb-15" value="" style="endArrow=classic;html=1;fontSize=16;entryX=0.5;entryY=0;entryDx=0;entryDy=0;exitX=0.5;exitY=1;exitDx=0;exitDy=0;fontFamily=Times New Roman;fontStyle=1;strokeWidth=2;" parent="WIyWlLk6GJQsqaUBKTNV-1" source="hjN7Fwfowrnle01kFaeb-5" target="hjN7Fwfowrnle01kFaeb-6" edge="1">
          <mxGeometry width="50" height="50" relative="1" as="geometry">
            <mxPoint x="220" y="690" as="sourcePoint" />
            <mxPoint x="210" y="700" as="targetPoint" />
          </mxGeometry>
        </mxCell>
        <mxCell id="hjN7Fwfowrnle01kFaeb-16" value="" style="endArrow=classic;html=1;fontSize=16;exitX=0.5;exitY=1;exitDx=0;exitDy=0;entryX=0.5;entryY=0;entryDx=0;entryDy=0;fontFamily=Times New Roman;fontStyle=1;strokeWidth=2;" parent="WIyWlLk6GJQsqaUBKTNV-1" source="hjN7Fwfowrnle01kFaeb-6" target="hjN7Fwfowrnle01kFaeb-7" edge="1">
          <mxGeometry width="50" height="50" relative="1" as="geometry">
            <mxPoint x="160" y="830" as="sourcePoint" />
            <mxPoint x="210" y="780" as="targetPoint" />
          </mxGeometry>
        </mxCell>
        <mxCell id="YA9H4fB15c2VrXf1QAoc-7" style="edgeStyle=orthogonalEdgeStyle;rounded=0;orthogonalLoop=1;jettySize=auto;html=1;entryX=0;entryY=0.5;entryDx=0;entryDy=0;exitX=0.5;exitY=1;exitDx=0;exitDy=0;fontSize=16;fontStyle=1;strokeWidth=2;" parent="WIyWlLk6GJQsqaUBKTNV-1" source="YA9H4fB15c2VrXf1QAoc-8" target="YA9H4fB15c2VrXf1QAoc-0" edge="1">
          <mxGeometry relative="1" as="geometry">
            <mxPoint x="-200" y="430" as="targetPoint" />
            <mxPoint x="10" y="1380" as="sourcePoint" />
            <Array as="points">
              <mxPoint x="240" y="1520" />
              <mxPoint x="-200" y="1520" />
              <mxPoint x="-200" y="480" />
            </Array>
          </mxGeometry>
        </mxCell>
        <mxCell id="hjN7Fwfowrnle01kFaeb-18" value="&lt;i style=&quot;font-size: 16px&quot;&gt;PAI&lt;sub style=&quot;font-size: 16px&quot;&gt;i&amp;nbsp;&lt;/sub&gt;&amp;gt;&amp;nbsp;&lt;/i&gt;&lt;i style=&quot;font-size: 16px&quot;&gt;max_PAI&lt;/i&gt;&lt;i style=&quot;font-size: 16px&quot;&gt;&lt;sub style=&quot;font-size: 16px&quot;&gt;&amp;nbsp;&lt;/sub&gt;&lt;/i&gt;" style="strokeWidth=2;html=1;shape=mxgraph.flowchart.decision;whiteSpace=wrap;fontSize=16;fontFamily=Times New Roman;fontStyle=1" parent="WIyWlLk6GJQsqaUBKTNV-1" vertex="1">
          <mxGeometry x="160" y="1089" width="160" height="80" as="geometry" />
        </mxCell>
        <mxCell id="hjN7Fwfowrnle01kFaeb-19" value="" style="endArrow=classic;html=1;fontSize=16;exitX=0.5;exitY=1;exitDx=0;exitDy=0;fontFamily=Times New Roman;entryX=0.5;entryY=0;entryDx=0;entryDy=0;entryPerimeter=0;fontStyle=1;strokeWidth=2;" parent="WIyWlLk6GJQsqaUBKTNV-1" source="hjN7Fwfowrnle01kFaeb-7" target="hjN7Fwfowrnle01kFaeb-18" edge="1">
          <mxGeometry width="50" height="50" relative="1" as="geometry">
            <mxPoint x="160" y="1000" as="sourcePoint" />
            <mxPoint x="390" y="1060" as="targetPoint" />
          </mxGeometry>
        </mxCell>
        <mxCell id="hjN7Fwfowrnle01kFaeb-20" value="" style="endArrow=classic;html=1;fontSize=16;exitX=0.5;exitY=1;exitDx=0;exitDy=0;exitPerimeter=0;fontFamily=Times New Roman;entryX=0.5;entryY=0;entryDx=0;entryDy=0;fontStyle=1;strokeWidth=2;" parent="WIyWlLk6GJQsqaUBKTNV-1" source="hjN7Fwfowrnle01kFaeb-18" target="YA9H4fB15c2VrXf1QAoc-5" edge="1">
          <mxGeometry relative="1" as="geometry">
            <mxPoint x="110" y="1131" as="sourcePoint" />
            <mxPoint x="240" y="1240" as="targetPoint" />
          </mxGeometry>
        </mxCell>
        <mxCell id="hjN7Fwfowrnle01kFaeb-21" value="Yes" style="edgeLabel;resizable=0;html=1;align=center;verticalAlign=middle;fontFamily=Times New Roman;fontSize=16;fontStyle=1" parent="hjN7Fwfowrnle01kFaeb-20" connectable="0" vertex="1">
          <mxGeometry relative="1" as="geometry" />
        </mxCell>
        <mxCell id="hjN7Fwfowrnle01kFaeb-23" value="" style="endArrow=classic;html=1;fontSize=16;fontFamily=Times New Roman;exitX=1;exitY=0.5;exitDx=0;exitDy=0;entryX=0.5;entryY=0;entryDx=0;entryDy=0;fontStyle=1;strokeWidth=2;" parent="WIyWlLk6GJQsqaUBKTNV-1" source="YA9H4fB15c2VrXf1QAoc-0" target="YA9H4fB15c2VrXf1QAoc-14" edge="1">
          <mxGeometry relative="1" as="geometry">
            <mxPoint x="420" y="350" as="sourcePoint" />
            <mxPoint x="520" y="760" as="targetPoint" />
            <Array as="points">
              <mxPoint x="600" y="480" />
            </Array>
          </mxGeometry>
        </mxCell>
        <mxCell id="hjN7Fwfowrnle01kFaeb-24" value="No" style="edgeLabel;resizable=0;html=1;align=center;verticalAlign=middle;fontFamily=Times New Roman;fontSize=16;fontStyle=1" parent="hjN7Fwfowrnle01kFaeb-23" connectable="0" vertex="1">
          <mxGeometry relative="1" as="geometry">
            <mxPoint y="1" as="offset" />
          </mxGeometry>
        </mxCell>
        <mxCell id="hjN7Fwfowrnle01kFaeb-26" value="End" style="strokeWidth=2;html=1;shape=mxgraph.flowchart.terminator;whiteSpace=wrap;fontSize=24;fontFamily=Times New Roman;fontStyle=1" parent="WIyWlLk6GJQsqaUBKTNV-1" vertex="1">
          <mxGeometry x="550" y="854" width="100" height="50" as="geometry" />
        </mxCell>
        <mxCell id="YA9H4fB15c2VrXf1QAoc-0" value="&lt;font face=&quot;Times New Roman&quot; style=&quot;font-size: 16px;&quot;&gt;&lt;i style=&quot;font-size: 16px;&quot;&gt;d&lt;sub style=&quot;font-size: 16px;&quot;&gt;i&amp;nbsp;&lt;/sub&gt;&lt;/i&gt;&amp;lt;=&amp;nbsp;&lt;i style=&quot;font-size: 16px;&quot;&gt;d&lt;sub style=&quot;font-size: 16px;&quot;&gt;max&lt;/sub&gt;&lt;/i&gt;&lt;/font&gt;" style="rhombus;whiteSpace=wrap;html=1;fontSize=16;fontStyle=1;strokeWidth=2;" parent="WIyWlLk6GJQsqaUBKTNV-1" vertex="1">
          <mxGeometry x="160" y="440" width="160" height="80" as="geometry" />
        </mxCell>
        <mxCell id="YA9H4fB15c2VrXf1QAoc-1" value="" style="endArrow=classic;html=1;fontSize=16;exitX=0.5;exitY=1;exitDx=0;exitDy=0;fontFamily=Times New Roman;fontStyle=1;strokeWidth=2;" parent="WIyWlLk6GJQsqaUBKTNV-1" source="YA9H4fB15c2VrXf1QAoc-0" target="hjN7Fwfowrnle01kFaeb-4" edge="1">
          <mxGeometry relative="1" as="geometry">
            <mxPoint x="359.31" y="898" as="sourcePoint" />
            <mxPoint x="359.31" y="959" as="targetPoint" />
          </mxGeometry>
        </mxCell>
        <mxCell id="YA9H4fB15c2VrXf1QAoc-2" value="Yes" style="edgeLabel;resizable=0;html=1;align=center;verticalAlign=middle;fontFamily=Times New Roman;fontSize=16;fontStyle=1" parent="YA9H4fB15c2VrXf1QAoc-1" connectable="0" vertex="1">
          <mxGeometry relative="1" as="geometry" />
        </mxCell>
        <mxCell id="YA9H4fB15c2VrXf1QAoc-5" value="&lt;i style=&quot;font-size: 16px;&quot;&gt;max_PAI&lt;/i&gt;&lt;span style=&quot;font-size: 16px;&quot;&gt;&lt;i style=&quot;font-size: 16px;&quot;&gt;&amp;nbsp;&lt;/i&gt;=&amp;nbsp;&lt;/span&gt;&lt;i style=&quot;font-size: 16px;&quot;&gt;PAI&lt;sub style=&quot;font-size: 16px;&quot;&gt;i&lt;/sub&gt;&lt;/i&gt;&lt;span style=&quot;font-size: 16px;&quot;&gt;;&lt;/span&gt;&lt;br style=&quot;font-size: 16px;&quot;&gt;&lt;span style=&quot;font-size: 16px;&quot;&gt;&lt;i style=&quot;font-size: 16px;&quot;&gt;d&lt;/i&gt;&lt;i style=&quot;font-size: 16px;&quot;&gt;&lt;sub style=&quot;font-size: 16px;&quot;&gt;max_PAI&amp;nbsp;&lt;/sub&gt;&lt;/i&gt;=&amp;nbsp;&lt;i style=&quot;font-size: 16px;&quot;&gt;d&lt;sub style=&quot;font-size: 16px;&quot;&gt;i&lt;/sub&gt;&lt;/i&gt;&lt;/span&gt;&lt;span style=&quot;font-size: 16px;&quot;&gt;&lt;i style=&quot;font-size: 16px;&quot;&gt;&lt;sub style=&quot;font-size: 16px;&quot;&gt;&lt;br style=&quot;font-size: 16px;&quot;&gt;&lt;/sub&gt;&lt;/i&gt;&lt;/span&gt;" style="rounded=1;whiteSpace=wrap;html=1;absoluteArcSize=1;arcSize=14;strokeWidth=2;fontSize=16;fontFamily=Times New Roman;fontStyle=1" parent="WIyWlLk6GJQsqaUBKTNV-1" vertex="1">
          <mxGeometry x="120" y="1230" width="240" height="80" as="geometry" />
        </mxCell>
        <mxCell id="YA9H4fB15c2VrXf1QAoc-8" value="&lt;span style=&quot;font-size: 16px;&quot;&gt;&lt;i style=&quot;font-size: 16px;&quot;&gt;d&lt;sub style=&quot;font-size: 16px;&quot;&gt;i&lt;/sub&gt;=d&lt;sub style=&quot;font-size: 16px;&quot;&gt;i+1&lt;/sub&gt;&lt;br style=&quot;font-size: 16px;&quot;&gt;&lt;/i&gt;&lt;/span&gt;" style="rounded=1;whiteSpace=wrap;html=1;absoluteArcSize=1;arcSize=14;strokeWidth=2;fontSize=16;fontFamily=Times New Roman;fontStyle=1" parent="WIyWlLk6GJQsqaUBKTNV-1" vertex="1">
          <mxGeometry x="120" y="1350" width="240" height="80" as="geometry" />
        </mxCell>
        <mxCell id="YA9H4fB15c2VrXf1QAoc-9" value="" style="endArrow=classic;html=1;exitX=0.5;exitY=1;exitDx=0;exitDy=0;fontSize=16;fontStyle=1;strokeWidth=2;" parent="WIyWlLk6GJQsqaUBKTNV-1" source="YA9H4fB15c2VrXf1QAoc-5" target="YA9H4fB15c2VrXf1QAoc-8" edge="1">
          <mxGeometry width="50" height="50" relative="1" as="geometry">
            <mxPoint x="240" y="1420" as="sourcePoint" />
            <mxPoint x="290" y="1370" as="targetPoint" />
          </mxGeometry>
        </mxCell>
        <mxCell id="YA9H4fB15c2VrXf1QAoc-11" value="" style="endArrow=classic;html=1;exitX=0;exitY=0.5;exitDx=0;exitDy=0;exitPerimeter=0;entryX=0;entryY=0.5;entryDx=0;entryDy=0;fontSize=16;fontStyle=1;strokeWidth=2;" parent="WIyWlLk6GJQsqaUBKTNV-1" source="hjN7Fwfowrnle01kFaeb-18" target="YA9H4fB15c2VrXf1QAoc-8" edge="1">
          <mxGeometry relative="1" as="geometry">
            <mxPoint x="160" y="1260" as="sourcePoint" />
            <mxPoint x="240" y="1320" as="targetPoint" />
            <Array as="points">
              <mxPoint x="80" y="1129" />
              <mxPoint x="80" y="1390" />
            </Array>
          </mxGeometry>
        </mxCell>
        <mxCell id="YA9H4fB15c2VrXf1QAoc-13" value="No" style="edgeLabel;html=1;align=center;verticalAlign=middle;resizable=0;points=[];fontSize=16;fontStyle=1" parent="YA9H4fB15c2VrXf1QAoc-11" vertex="1" connectable="0">
          <mxGeometry x="-0.0419" y="-1" relative="1" as="geometry">
            <mxPoint as="offset" />
          </mxGeometry>
        </mxCell>
        <mxCell id="YA9H4fB15c2VrXf1QAoc-14" value="Output&amp;nbsp;&lt;i style=&quot;font-size: 16px;&quot;&gt;max_PAI&lt;/i&gt;&lt;br style=&quot;font-size: 16px;&quot;&gt;&amp;nbsp; and&amp;nbsp;&lt;i style=&quot;font-size: 16px;&quot;&gt;d&lt;/i&gt;&lt;i style=&quot;font-size: 16px;&quot;&gt;&lt;sub style=&quot;font-size: 16px;&quot;&gt;max_PAI&lt;/sub&gt;&lt;/i&gt;" style="rounded=1;whiteSpace=wrap;html=1;absoluteArcSize=1;arcSize=14;strokeWidth=2;fontSize=16;fontFamily=Times New Roman;fontStyle=1" parent="WIyWlLk6GJQsqaUBKTNV-1" vertex="1">
          <mxGeometry x="480" y="679" width="240" height="80" as="geometry" />
        </mxCell>
        <mxCell id="YA9H4fB15c2VrXf1QAoc-15" value="" style="endArrow=classic;html=1;exitX=0.5;exitY=1;exitDx=0;exitDy=0;entryX=0.5;entryY=0;entryDx=0;entryDy=0;entryPerimeter=0;fontSize=16;fontStyle=1;strokeWidth=2;" parent="WIyWlLk6GJQsqaUBKTNV-1" source="YA9H4fB15c2VrXf1QAoc-14" target="hjN7Fwfowrnle01kFaeb-26" edge="1">
          <mxGeometry width="50" height="50" relative="1" as="geometry">
            <mxPoint x="520" y="910" as="sourcePoint" />
            <mxPoint x="570" y="860" as="targetPoint" />
          </mxGeometry>
        </mxCell>
      </root>
    </mxGraphModel>
  </diagram>
</mxfile>
